<svg width="257" height="75" viewBox="0 0 257 75" fill="none" xmlns="http://www.w3.org/2000/svg">
<path d="M66.0113 24.6418V62.2313L59.0261 65.8586L34.1845 41.3482C34.293 41.2408 36.763 41.184 39.2058 41.184C41.6487 41.184 44.0585 41.2408 44.0645 41.3482L59.0291 56.1799V24.6418C59.0291 20.2741 55.4536 16.7274 51.0438 16.7274H21.7653V45.7458C21.7653 50.1135 25.3407 53.6602 29.7506 53.6602H40.3957L47.7153 60.5834H29.7476C21.4791 60.5834 14.777 53.9378 14.777 45.7458V9.80417H51.0407C59.3062 9.80417 66.0113 16.4468 66.0113 24.6418Z" fill="white"/>
<path d="M59.0231 56.2963V65.8586L34.1815 41.3482C34.29 41.2407 36.76 41.184 39.2028 41.184C41.6457 41.184 44.0555 41.2407 44.0615 41.3482L58.8002 55.9559L59.0231 56.2963Z" fill="#89B657"/>
<path d="M87.5726 41.4975C86.0605 40.6526 84.8887 39.4614 84.0573 37.9179C83.226 36.3745 82.8103 34.5892 82.8103 32.5591V24.7134C82.8103 22.6833 83.226 20.895 84.0573 19.3545C84.8887 17.8111 86.0605 16.6199 87.5726 15.775C89.0847 14.9301 90.8318 14.5092 92.8168 14.5092C94.8018 14.5092 96.5489 14.9301 98.061 15.775C99.5731 16.6199 100.745 17.8111 101.576 19.3545C102.408 20.898 102.823 22.6833 102.823 24.7134V32.5561C102.823 34.5862 102.408 36.3745 101.576 37.915C100.745 39.4584 99.5731 40.6496 98.061 41.4945C96.5489 42.3394 94.8018 42.7603 92.8168 42.7603C90.8318 42.7633 89.0847 42.3394 87.5726 41.4975ZM95.591 37.5657C96.3923 37.1089 97.0098 36.4581 97.4435 35.6132C97.8773 34.7683 98.0972 33.7951 98.0972 32.6905V24.582C98.0972 23.4774 97.8803 22.5042 97.4435 21.6593C97.0067 20.8144 96.3893 20.1636 95.591 19.7068C94.7898 19.2501 93.865 19.0202 92.8168 19.0202C91.7655 19.0202 90.8408 19.2501 90.0426 19.7068C89.2413 20.1636 88.6238 20.8144 88.1901 21.6593C87.7533 22.5042 87.5364 23.4774 87.5364 24.582V32.6934C87.5364 33.798 87.7533 34.7713 88.1901 35.6162C88.6268 36.4611 89.2443 37.1119 90.0426 37.5686C90.8438 38.0254 91.7686 38.2553 92.8168 38.2553C93.865 38.2493 94.7928 38.0224 95.591 37.5657ZM92.374 34.8041L94.7958 31.759L105.399 39.8704L102.98 42.9365L92.374 34.8041Z" fill="white"/>
<path d="M114.312 41.5542C112.815 40.7482 111.673 39.5749 110.893 38.0314C110.113 36.488 109.721 34.634 109.721 32.4636V14.7958H114.312V32.5949C114.312 34.3981 114.782 35.7923 115.724 36.7835C116.667 37.7747 117.996 38.2673 119.71 38.2673C121.439 38.2673 122.776 37.7717 123.725 36.7835C124.674 35.7923 125.147 34.3981 125.147 32.5949V14.7958H129.737V32.4636C129.737 34.634 129.343 36.4909 128.556 38.0314C127.767 39.5749 126.626 40.7482 125.129 41.5542C123.631 42.3603 121.824 42.7633 119.713 42.7633C117.607 42.7633 115.809 42.3603 114.312 41.5542Z" fill="white"/>
<path d="M140.165 41.4975C138.653 40.6526 137.481 39.4614 136.65 37.918C135.819 36.3745 135.403 34.5892 135.403 32.5591V24.7134C135.403 22.6833 135.819 20.895 136.65 19.3545C137.481 17.8111 138.653 16.6199 140.165 15.775C141.677 14.9301 143.425 14.5092 145.41 14.5092C147.395 14.5092 149.142 14.9301 150.654 15.775C152.166 16.6199 153.338 17.8111 154.169 19.3545C155 20.898 155.416 22.6833 155.416 24.7134V32.5561C155.416 34.5862 155 36.3745 154.169 37.915C153.338 39.4584 152.166 40.6496 150.654 41.4945C149.142 42.3394 147.395 42.7603 145.41 42.7603C143.425 42.7633 141.677 42.3394 140.165 41.4975ZM148.187 37.5657C148.988 37.1089 149.606 36.4581 150.039 35.6132C150.473 34.7683 150.693 33.7951 150.693 32.6905V24.582C150.693 23.4774 150.476 22.5042 150.039 21.6593C149.603 20.8144 148.985 20.1636 148.187 19.7068C147.386 19.2501 146.461 19.0202 145.413 19.0202C144.361 19.0202 143.437 19.2501 142.638 19.7068C141.837 20.1636 141.22 20.8144 140.786 21.6593C140.349 22.5042 140.132 23.4774 140.132 24.582V32.6934C140.132 33.7981 140.349 34.7713 140.786 35.6162C141.223 36.4611 141.84 37.1119 142.638 37.5687C143.44 38.0254 144.364 38.2553 145.413 38.2553C146.461 38.2493 147.386 38.0224 148.187 37.5657Z" fill="white"/>
<path d="M161.853 14.7779H166.444V42.4767H161.853V14.7779ZM163.754 26.6957H173.378C174.02 26.6957 174.586 26.5405 175.077 26.23C175.571 25.9195 175.95 25.4777 176.218 24.9075C176.486 24.3372 176.628 23.6715 176.64 22.9072C176.64 22.1579 176.505 21.4981 176.236 20.9279C175.968 20.3577 175.586 19.9158 175.095 19.6053C174.601 19.2948 174.029 19.1396 173.375 19.1396H163.751V14.7779H173.507C175.083 14.7779 176.465 15.1152 177.655 15.787C178.845 16.4587 179.77 17.411 180.429 18.641C181.089 19.871 181.417 21.2951 181.417 22.9042C181.417 24.5283 181.086 25.9553 180.429 27.1883C179.77 28.4183 178.842 29.3707 177.643 30.0454C176.447 30.7171 175.065 31.0545 173.504 31.0545H163.748V26.6957H163.754ZM170.498 30.1976L175.261 29.3229L182.598 42.4767H177.086L170.498 30.1976Z" fill="white"/>
<path d="M191.8 41.5542C190.303 40.7482 189.162 39.5749 188.382 38.0314C187.601 36.488 187.21 34.634 187.21 32.4636V14.7958H191.8V32.5949C191.8 34.3981 192.27 35.7923 193.213 36.7835C194.156 37.7747 195.484 38.2673 197.198 38.2673C198.927 38.2673 200.265 37.7717 201.214 36.7835C202.162 35.7923 202.635 34.3981 202.635 32.5949V14.7958H207.226V32.4636C207.226 34.634 206.831 36.4909 206.045 38.0314C205.256 39.5749 204.114 40.7482 202.617 41.5542C201.12 42.3603 199.313 42.7633 197.201 42.7633C195.096 42.7633 193.297 42.3603 191.8 41.5542Z" fill="white"/>
<path d="M232.676 14.7958H237.977V42.4767H233.676V21.3638L233.869 22.5818L227.76 39.0106H224.073L217.964 22.961L218.157 21.3608V42.4737H213.856V14.7958H219.157L225.919 33.2607L232.676 14.7958Z" fill="white"/>
<path d="M87.9703 60.6908H86.5334V52.2062H87.9703V60.6908Z" fill="white"/>
<path d="M89.9132 52.2092H91.4434L95.1273 58.7384L94.9857 58.8906V52.2092H96.3502V60.6879H94.808L91.1331 54.2572L91.2747 54.105V60.6849H89.9102V52.2092H89.9132Z" fill="white"/>
<path d="M98.3563 52.2092H99.763V60.6938H98.3563V52.2092ZM98.9437 52.2092H103.86V53.5467H98.9437V52.2092ZM98.9437 55.8903H103.212V57.2218H98.9437V55.8903Z" fill="white"/>
<path d="M106.378 60.3893C105.914 60.1295 105.555 59.7653 105.299 59.2936C105.043 58.8219 104.917 58.2726 104.917 57.6516V55.2484C104.917 54.6274 105.043 54.0781 105.299 53.6064C105.555 53.1347 105.914 52.7675 106.378 52.5107C106.842 52.251 107.378 52.1226 107.983 52.1226C108.589 52.1226 109.128 52.251 109.589 52.5107C110.053 52.7705 110.411 53.1347 110.667 53.6064C110.923 54.0781 111.05 54.6274 111.05 55.2484V57.6516C111.05 58.2726 110.923 58.8219 110.667 59.2936C110.411 59.7653 110.053 60.1325 109.589 60.3893C109.125 60.649 108.589 60.7774 107.983 60.7774C107.378 60.7774 106.842 60.649 106.378 60.3893ZM108.836 59.1862C109.08 59.0458 109.269 58.8458 109.405 58.5891C109.538 58.3293 109.604 58.0308 109.604 57.6934V55.2066C109.604 54.8692 109.538 54.5707 109.405 54.3109C109.272 54.0512 109.083 53.8542 108.836 53.7139C108.592 53.5735 108.306 53.5049 107.986 53.5049C107.667 53.5049 107.381 53.5735 107.137 53.7139C106.893 53.8542 106.703 54.0542 106.568 54.3109C106.435 54.5707 106.369 54.8692 106.369 55.2066V57.6934C106.369 58.0308 106.435 58.3293 106.568 58.5891C106.7 58.8488 106.89 59.0458 107.137 59.1862C107.381 59.3265 107.667 59.3951 107.986 59.3951C108.306 59.3951 108.592 59.3265 108.836 59.1862Z" fill="white"/>
<path d="M112.761 52.2032H114.167V60.6908H112.761V52.2032ZM113.342 55.8544H116.291C116.487 55.8544 116.661 55.8067 116.812 55.7111C116.963 55.6156 117.08 55.4812 117.161 55.3051C117.243 55.129 117.288 54.926 117.291 54.6931C117.291 54.4632 117.249 54.2602 117.167 54.087C117.086 53.9109 116.969 53.7766 116.818 53.681C116.667 53.5855 116.493 53.5377 116.291 53.5377H113.342V52.2003H116.333C116.815 52.2003 117.24 52.3047 117.604 52.5107C117.969 52.7167 118.252 53.0093 118.454 53.3855C118.655 53.7616 118.758 54.1975 118.758 54.6931C118.758 55.1917 118.655 55.6275 118.454 56.0067C118.252 56.3858 117.966 56.6754 117.601 56.8814C117.234 57.0874 116.812 57.1919 116.333 57.1919H113.342V55.8544ZM115.408 56.9292L116.869 56.6605L119.119 60.6908H117.43L115.408 56.9292Z" fill="white"/>
<path d="M126.388 52.2092H128.011V60.6938H126.692V54.2244L126.752 54.5976L124.882 59.634H123.752L121.882 54.717L121.942 54.2274V60.6968H120.622V52.2122H122.246L124.318 57.8726L126.388 52.2092Z" fill="white"/>
<path d="M132.286 52.2092H133.31L136.524 60.6938H135.012L132.798 54.3737L130.584 60.6938H129.072L132.286 52.2092ZM130.584 57.7442H135.087V59.0817H130.584V57.7442Z" fill="white"/>
<path d="M136.289 52.2092H142.446V53.5467H136.289V52.2092ZM138.668 52.9018H140.069V60.6908H138.668V52.9018Z" fill="white"/>
<path d="M144.883 60.6908H143.446V52.2062H144.883V60.6908Z" fill="white"/>
<path d="M148.109 60.3893C147.645 60.1295 147.286 59.7653 147.03 59.2936C146.774 58.8219 146.648 58.2726 146.648 57.6516V55.2484C146.648 54.6274 146.774 54.0781 147.03 53.6064C147.286 53.1347 147.645 52.7675 148.109 52.5107C148.572 52.251 149.109 52.1226 149.714 52.1226C150.32 52.1226 150.859 52.251 151.32 52.5107C151.783 52.7705 152.142 53.1347 152.398 53.6064C152.654 54.0781 152.781 54.6274 152.781 55.2484V57.6516C152.781 58.2726 152.654 58.8219 152.398 59.2936C152.142 59.7653 151.783 60.1325 151.32 60.3893C150.856 60.649 150.32 60.7774 149.714 60.7774C149.109 60.7774 148.572 60.649 148.109 60.3893ZM150.567 59.1862C150.811 59.0458 151 58.8458 151.136 58.5891C151.268 58.3293 151.335 58.0308 151.335 57.6934V55.2066C151.335 54.8692 151.268 54.5707 151.136 54.3109C151.003 54.0512 150.814 53.8542 150.567 53.7139C150.323 53.5735 150.036 53.5049 149.717 53.5049C149.398 53.5049 149.112 53.5735 148.868 53.7139C148.624 53.8542 148.434 54.0542 148.298 54.3109C148.166 54.5707 148.1 54.8692 148.1 55.2066V57.6934C148.1 58.0308 148.166 58.3293 148.298 58.5891C148.431 58.8488 148.621 59.0458 148.868 59.1862C149.112 59.3265 149.398 59.3951 149.717 59.3951C150.036 59.3951 150.323 59.3265 150.567 59.1862Z" fill="white"/>
<path d="M154.491 52.2092H156.022L159.706 58.7384L159.564 58.8906V52.2092H160.928V60.6879H159.386L155.711 54.2572L155.853 54.105V60.6849H154.488V52.2092H154.491Z" fill="white"/>
<path d="M164.992 52.2092H171.149V53.5467H164.992V52.2092ZM167.372 52.9018H168.772V60.6908H167.372V52.9018Z" fill="white"/>
<path d="M172.209 52.2092H173.616V60.6938H172.209V52.2092ZM172.793 52.2092H177.827V53.5467H172.793V52.2092ZM172.793 55.8126H177.179V57.1441H172.793V55.8126ZM172.793 59.3564H177.827V60.6938H172.793V59.3564Z" fill="white"/>
<path d="M180.658 60.3953C180.2 60.1415 179.851 59.7773 179.604 59.3026C179.36 58.8279 179.237 58.2667 179.237 57.6158V55.2872C179.237 54.6364 179.36 54.0751 179.604 53.6004C179.848 53.1257 180.2 52.7615 180.658 52.5048C181.116 52.248 181.655 52.1197 182.273 52.1197C182.788 52.1197 183.252 52.2301 183.671 52.4451C184.089 52.663 184.436 52.9765 184.713 53.3885C184.99 53.8005 185.18 54.2841 185.282 54.8454H183.833C183.764 54.5737 183.649 54.3349 183.499 54.1318C183.345 53.9288 183.164 53.7706 182.954 53.6631C182.743 53.5557 182.517 53.4989 182.273 53.4989C181.948 53.4989 181.664 53.5706 181.429 53.7169C181.191 53.8631 181.008 54.0691 180.878 54.3378C180.749 54.6065 180.685 54.923 180.685 55.2902V57.6188C180.685 57.983 180.749 58.3025 180.878 58.5712C181.008 58.8399 181.191 59.0459 181.429 59.1892C181.667 59.3325 181.948 59.4041 182.273 59.4041C182.52 59.4041 182.749 59.3504 182.96 59.2459C183.17 59.1414 183.351 58.9862 183.505 58.7861C183.658 58.5831 183.767 58.3413 183.833 58.0577H185.282C185.177 58.6189 184.984 59.1026 184.707 59.5146C184.43 59.9266 184.083 60.24 183.664 60.458C183.246 60.6759 182.782 60.7834 182.273 60.7834C181.655 60.7774 181.116 60.652 180.658 60.3953Z" fill="white"/>
<path d="M186.755 52.2092H188.162V60.6938H186.755V52.2092ZM187.502 55.8306H192.37V57.168H187.502V55.8306ZM191.529 52.2092H192.936V60.6938H191.529V52.2092Z" fill="white"/>
<path d="M194.939 52.2092H196.469L200.153 58.7384L200.012 58.8906V52.2092H201.376V60.6879H199.834L196.159 54.2572L196.301 54.105V60.6849H194.936V52.2092H194.939Z" fill="white"/>
<path d="M204.663 60.3893C204.199 60.1295 203.84 59.7653 203.584 59.2936C203.328 58.8219 203.202 58.2726 203.202 57.6516V55.2484C203.202 54.6274 203.328 54.0781 203.584 53.6064C203.84 53.1347 204.199 52.7675 204.663 52.5107C205.126 52.251 205.663 52.1226 206.268 52.1226C206.874 52.1226 207.413 52.251 207.874 52.5107C208.337 52.7705 208.696 53.1347 208.952 53.6064C209.208 54.0781 209.334 54.6274 209.334 55.2484V57.6516C209.334 58.2726 209.208 58.8219 208.952 59.2936C208.696 59.7653 208.337 60.1325 207.874 60.3893C207.41 60.649 206.874 60.7774 206.268 60.7774C205.663 60.7774 205.126 60.649 204.663 60.3893ZM207.121 59.1862C207.365 59.0458 207.554 58.8458 207.69 58.5891C207.822 58.3293 207.889 58.0308 207.889 57.6934V55.2066C207.889 54.8692 207.822 54.5707 207.69 54.3109C207.557 54.0512 207.368 53.8542 207.121 53.7139C206.877 53.5735 206.59 53.5049 206.271 53.5049C205.952 53.5049 205.666 53.5735 205.422 53.7139C205.178 53.8542 204.988 54.0542 204.852 54.3109C204.72 54.5707 204.654 54.8692 204.654 55.2066V57.6934C204.654 58.0308 204.72 58.3293 204.852 58.5891C204.985 58.8488 205.175 59.0458 205.422 59.1862C205.666 59.3265 205.952 59.3951 206.271 59.3951C206.59 59.3951 206.874 59.3265 207.121 59.1862Z" fill="white"/>
<path d="M211.042 52.2092H212.449V60.6938H211.042V52.2092ZM211.702 59.3564H216.66V60.6938H211.702V59.3564Z" fill="white"/>
<path d="M219.004 60.3893C218.54 60.1295 218.181 59.7653 217.925 59.2936C217.669 58.8219 217.543 58.2726 217.543 57.6516V55.2484C217.543 54.6274 217.669 54.0781 217.925 53.6064C218.181 53.1347 218.54 52.7675 219.004 52.5107C219.467 52.251 220.004 52.1226 220.609 52.1226C221.214 52.1226 221.754 52.251 222.215 52.5107C222.678 52.7705 223.037 53.1347 223.293 53.6064C223.549 54.0781 223.675 54.6274 223.675 55.2484V57.6516C223.675 58.2726 223.549 58.8219 223.293 59.2936C223.037 59.7653 222.678 60.1325 222.215 60.3893C221.751 60.649 221.214 60.7774 220.609 60.7774C220.004 60.7774 219.464 60.649 219.004 60.3893ZM221.461 59.1862C221.705 59.0458 221.895 58.8458 222.031 58.5891C222.163 58.3293 222.23 58.0308 222.23 57.6934V55.2066C222.23 54.8692 222.163 54.5707 222.031 54.3109C221.898 54.0512 221.708 53.8542 221.461 53.7139C221.217 53.5735 220.931 53.5049 220.612 53.5049C220.293 53.5049 220.007 53.5735 219.763 53.7139C219.519 53.8542 219.329 54.0542 219.193 54.3109C219.061 54.5707 218.994 54.8692 218.994 55.2066V57.6934C218.994 58.0308 219.061 58.3293 219.193 58.5891C219.326 58.8488 219.516 59.0458 219.763 59.1862C220.007 59.3265 220.293 59.3951 220.612 59.3951C220.931 59.3951 221.214 59.3265 221.461 59.1862Z" fill="white"/>
<path d="M231.236 56.0365V57.6069C231.236 58.2368 231.11 58.7921 230.856 59.2727C230.603 59.7534 230.245 60.1236 229.784 60.3863C229.323 60.649 228.787 60.7804 228.179 60.7804C227.567 60.7804 227.028 60.658 226.561 60.4102C226.094 60.1624 225.733 59.8131 225.474 59.3623C225.215 58.9115 225.088 58.389 225.088 57.792V55.2902C225.088 54.6602 225.215 54.1049 225.468 53.6273C225.721 53.1496 226.079 52.7794 226.54 52.5167C227.001 52.254 227.537 52.1226 228.146 52.1226C228.643 52.1226 229.106 52.2271 229.528 52.4361C229.953 52.6451 230.305 52.9376 230.588 53.3198C230.872 53.7019 231.064 54.1438 231.167 54.6453H229.649C229.582 54.4124 229.474 54.2124 229.323 54.0452C229.173 53.8781 228.995 53.7497 228.787 53.6631C228.582 53.5765 228.368 53.5317 228.149 53.5317C227.826 53.5317 227.546 53.6034 227.305 53.7497C227.064 53.896 226.877 54.102 226.742 54.3677C226.609 54.6334 226.543 54.9439 226.543 55.2932V57.7949C226.543 58.1114 226.609 58.3861 226.745 58.6279C226.88 58.8697 227.073 59.0518 227.323 59.1832C227.573 59.3145 227.859 59.3772 228.185 59.3772C228.507 59.3772 228.79 59.3086 229.031 59.1712C229.275 59.0339 229.462 58.8339 229.594 58.5712C229.727 58.3084 229.79 57.998 229.79 57.6337V57.377H228.272V56.0395H231.236V56.0365Z" fill="white"/>
<path d="M235.791 57.3292V60.6908H234.39V57.3292L231.823 52.2062H233.336L235.092 55.947L236.845 52.2062H238.357L235.791 57.3292Z" fill="white"/>
</svg>
